<svg xmlns="http://www.w3.org/2000/svg" viewBox="0 0 200 81.8"><defs><style>.cls-1{fill:#1e1e2e;}</style></defs><g id="Capa_2" data-name="Capa 2"><g id="objects"><path class="cls-1" d="M0,80.51V1.17H20.65V62.08H55.31V80.51Z"/><path class="cls-1" d="M89.38,81.56a28.57,28.57,0,0,1-12.95-3,25,25,0,0,1-9.8-8.63,23.23,23.23,0,0,1-3.74-13.19,21.53,21.53,0,0,1,3.27-12,31.07,31.07,0,0,1,8.52-8.63L76.43,35c.54-.35,1.09-.72,1.63-1.11a28.22,28.22,0,0,1-4.14-6A16.62,16.62,0,0,1,72.11,20a19.72,19.72,0,0,1,2.8-10.67,18.66,18.66,0,0,1,7.53-6.89A23.1,23.1,0,0,1,93,0a23.56,23.56,0,0,1,10.32,2.27A19.2,19.2,0,0,1,111,8.81a17.87,17.87,0,0,1,2.92,10.33,15.32,15.32,0,0,1-3.16,10,41.89,41.89,0,0,1-6.88,6.83,3.47,3.47,0,0,1-.47.35l-.7.47,9.1,10.62q1.53-1.87,3-3.62c1-1.17,1.89-2.26,2.74-3.27s1.52-1.83,2-2.45L130.8,50.41a55.12,55.12,0,0,1-4.14,5.37c-1.44,1.63-2.82,3.19-4.14,4.66l16.57,20.19H117L110.5,72.7a40,40,0,0,1-6.24,4.72,28.14,28.14,0,0,1-7,3.09A28.59,28.59,0,0,1,89.38,81.56ZM89,65.46a8.84,8.84,0,0,0,4.2-1c1.32-.7,2.41-1.32,3.27-1.87a13.77,13.77,0,0,0,1.75-1.28,12.32,12.32,0,0,0,1.4-1.4l-11-13.07a3.23,3.23,0,0,0-.76.35,15.22,15.22,0,0,0-1.57,1A26.74,26.74,0,0,0,82,51.93a6.72,6.72,0,0,0-2.1,4.66A8.12,8.12,0,0,0,81.21,61a9.83,9.83,0,0,0,3.39,3.27A8.7,8.7,0,0,0,89,65.46Zm3.15-40s2.22-1.56,2.69-1.87a10.35,10.35,0,0,0,1.63-1.81,3.89,3.89,0,0,0,.7-2.27,3.68,3.68,0,0,0-1.17-3,4.47,4.47,0,0,0-3.15-.81,4,4,0,0,0-2,.58,5.57,5.57,0,0,0-1.58,1.34,2.55,2.55,0,0,0-.58,1.58,5.38,5.38,0,0,0,.12,1.28,12.87,12.87,0,0,0,1.75,3C91.17,24.06,92.18,25.44,92.18,25.44Z"/><path class="cls-1" d="M167.33,81.8A26.72,26.72,0,0,1,157.41,80a33.36,33.36,0,0,1-8-4.49,30.83,30.83,0,0,1-5.6-5.37,13.26,13.26,0,0,1-2.57-4.55l12.13-17.74a53,53,0,0,0,4.21,7.41,20.3,20.3,0,0,0,4.72,5,8.58,8.58,0,0,0,5.08,1.81,15.65,15.65,0,0,0,7.35-1.4,7.71,7.71,0,0,0,3.56-3.79,15.5,15.5,0,0,0,1.11-5.31c.07-1.95.11-3.93.11-6V1.17H200V47.49q0,12.6-4.08,20.13a24.12,24.12,0,0,1-11.44,10.85A41.22,41.22,0,0,1,167.33,81.8Z"/></g></g></svg>